<?xml version="1.0" encoding="UTF-8"?>
<svg version="1.1" xmlns="http://www.w3.org/2000/svg" width="1254" height="1254">
<path d="M0 0 C413.82 0 827.64 0 1254 0 C1254 413.82 1254 827.64 1254 1254 C840.18 1254 426.36 1254 0 1254 C0 840.18 0 426.36 0 0 Z " fill="#000000" transform="translate(0,0)"/>
<path d="M0 0 C3.05314963 0.99868711 5.98772821 1.64326011 9.14794922 2.2043457 C10.83114258 2.51275391 10.83114258 2.51275391 12.54833984 2.82739258 C14.88372151 3.24716346 17.21966103 3.66384275 19.55615234 4.07739258 C25.4986941 5.17180216 30.59766098 6.51090175 36.12060547 9.02075195 C39.84136225 10.18938664 43.60538707 11.19343904 47.37060547 12.20825195 C54.35604198 14.10572958 61.30707432 16.05022256 68.20263672 18.25512695 C85.03367884 23.60433731 99.9854548 27.88517459 116.70263672 19.7668457 C126.901429 14.15521637 131.99184868 6.24069222 137.12060547 -3.97924805 C139.10060547 -3.97924805 141.08060547 -3.97924805 143.12060547 -3.97924805 C143.12060547 46.18075195 143.12060547 96.34075195 143.12060547 148.02075195 C140.81060547 148.02075195 138.50060547 148.02075195 136.12060547 148.02075195 C135.71841797 146.54541992 135.71841797 146.54541992 135.30810547 145.0402832 C120.68204762 92.65694807 90.36003064 52.72858354 42.91992188 25.87988281 C42.11989746 25.43136963 41.31987305 24.98285645 40.49560547 24.52075195 C39.3400415 23.87021851 39.3400415 23.87021851 38.16113281 23.20654297 C37.43361816 22.80491943 36.70610352 22.4032959 35.95654297 21.98950195 C35.31249512 21.63307617 34.66844727 21.27665039 34.00488281 20.90942383 C32.06139828 19.99282837 30.21731659 19.46975639 28.12060547 19.02075195 C28.12060547 18.36075195 28.12060547 17.70075195 28.12060547 17.02075195 C27.58435547 16.93438477 27.04810547 16.84801758 26.49560547 16.7590332 C20.97506224 15.76933055 15.70076539 14.31285143 10.37060547 12.58325195 C3.04347984 10.22505695 -4.29525352 8.38039589 -11.87939453 7.02075195 C-13.20571899 6.76588013 -13.20571899 6.76588013 -14.55883789 6.50585938 C-23.29818245 4.96685099 -31.83426073 4.6806214 -40.67944336 4.70507812 C-43.04669913 4.70822511 -45.41268376 4.6847286 -47.77978516 4.65942383 C-78.86275386 4.53029505 -109.63652149 13.80815079 -132.69189453 35.27075195 C-149.79098016 53.38499665 -157.58527487 77.71617612 -157.27758789 102.21264648 C-156.69220722 122.26871327 -151.01767568 140.52794013 -137.87939453 156.02075195 C-137.05697266 156.99270508 -136.23455078 157.9646582 -135.38720703 158.96606445 C-122.00505774 174.33212354 -105.3557163 185.66471818 -88.01220703 196.1262207 C-85.90970329 197.39768494 -83.82110497 198.69240954 -81.74658203 200.0090332 C-74.75401346 204.43307843 -67.62942959 208.24329182 -60.21142578 211.8762207 C-55.4095739 214.23438206 -50.67389158 216.71346946 -45.94189453 219.20825195 C-45.17345215 219.61221191 -44.40500977 220.01617187 -43.61328125 220.43237305 C-39.10159943 222.81437738 -34.63829332 225.26372783 -30.21313477 227.80322266 C-27.17470803 229.38839204 -24.0304621 230.67447147 -20.87939453 232.02075195 C-18.71515137 233.0708164 -16.56099984 234.14180887 -14.41455078 235.2277832 C-12.998323 235.94138485 -11.58178985 236.65438062 -10.16503906 237.36694336 C-9.34803528 237.77801331 -8.53103149 238.18908325 -7.68927002 238.61260986 C-3.81989341 240.55171076 0.05734397 242.47487351 3.93468285 244.39798164 C9.38384661 247.10072078 14.83010472 249.80926279 20.27514076 252.52030754 C23.82205427 254.28597239 27.37005264 256.04937917 30.9206543 257.80761719 C48.2767433 266.40464393 65.39055184 275.24100158 82.12060547 285.02075195 C83.0080545 285.53709198 83.89550354 286.05343201 84.80984497 286.5854187 C124.468732 309.67966348 161.44840147 338.07022073 189.12060547 375.02075195 C189.75482422 375.85864258 190.38904297 376.6965332 191.04248047 377.55981445 C212.71155799 407.28024646 225.83852989 445.03335517 220.33154297 481.95825195 C219.41944961 487.34740001 218.32092708 492.68903766 217.12060547 498.02075195 C216.87052734 499.15512695 216.62044922 500.28950195 216.36279297 501.45825195 C214.73896207 508.02823443 212.0903718 513.95780042 209.12060547 520.02075195 C208.52531823 521.27324438 207.930281 522.52585566 207.33544922 523.77856445 C188.24300786 563.50284787 155.48390563 590.33749399 114.12060547 605.02075195 C112.98969482 605.43381592 112.98969482 605.43381592 111.8359375 605.85522461 C88.33877826 614.3424415 63.85076669 617.20952353 39.01782227 617.26098633 C36.22039252 617.2706235 33.423721 617.30169746 30.62646484 617.33325195 C14.17775866 617.4308642 -1.73929519 615.57183142 -17.62939453 611.20825195 C-18.59490234 610.9474585 -19.56041016 610.68666504 -20.55517578 610.41796875 C-45.85211851 603.42215145 -68.85849353 590.92718737 -91.43798828 577.78637695 C-102.71320732 571.26332834 -113.92475622 565.42516792 -126.08227539 560.7199707 C-127.56037691 560.14487455 -129.02480853 559.5347667 -130.48486328 558.9152832 C-149.62602714 551.76466897 -170.66118029 553.84036114 -189.14111328 561.7824707 C-198.47417476 566.08122073 -206.78283136 571.73815921 -214.87939453 578.02075195 C-215.82298828 578.75165039 -216.76658203 579.48254883 -217.73876953 580.2355957 C-223.99136653 585.23225198 -229.86244579 590.60788469 -235.70751953 596.06762695 C-240.04108431 600.11546219 -244.45837444 604.06877914 -248.87939453 608.02075195 C-250.52939453 607.36075195 -252.17939453 606.70075195 -253.87939453 606.02075195 C-252.32039237 601.98237286 -249.44530463 599.65000088 -246.25439453 596.89575195 C-240.79765114 592.02548477 -236.23752396 586.91168356 -231.87939453 581.02075195 C-231.00757999 579.87577786 -230.13514364 578.73127706 -229.26220703 577.5871582 C-213.81344612 557.1563205 -202.15110226 534.25936218 -193.87939453 510.02075195 C-193.38863938 508.66736712 -192.89640352 507.31451847 -192.40283203 505.9621582 C-171.52969099 447.62457685 -173.30913618 383.10825431 -171.87939453 322.02075195 C-170.22939453 322.02075195 -168.57939453 322.02075195 -166.87939453 322.02075195 C-166.85180305 323.01956642 -166.85180305 323.01956642 -166.82365417 324.03855896 C-165.81842502 369.12660927 -165.81842502 369.12660927 -161.87939453 414.02075195 C-161.79667297 414.68258484 -161.71395142 415.34441772 -161.62872314 416.02630615 C-155.04100459 468.31603287 -134.20586033 515.68435141 -91.92700195 549.10229492 C-89.27931395 551.12650158 -86.58829653 553.07870824 -83.87939453 555.02075195 C-82.39439453 556.10549805 -82.39439453 556.10549805 -80.87939453 557.2121582 C-61.56135339 570.98611866 -40.73100716 581.89641692 -18.87939453 591.02075195 C-17.98478516 591.39973633 -17.09017578 591.7787207 -16.16845703 592.16918945 C9.59399463 602.3278849 40.22328688 604.65211852 67.12060547 598.02075195 C68.05388672 597.82739258 68.98716797 597.6340332 69.94873047 597.43481445 C88.39033548 593.18330671 104.58689837 582.93929055 118.12060547 570.02075195 C118.73419922 569.48192383 119.34779297 568.9430957 119.97998047 568.38793945 C134.47292243 555.15814381 140.80921708 535.52534243 145.12060547 517.02075195 C145.32298828 516.21895508 145.52537109 515.4171582 145.73388672 514.59106445 C147.99326167 499.57420871 145.82414909 485.28698878 141.12060547 471.02075195 C140.63720703 469.47000977 140.63720703 469.47000977 140.14404297 467.88793945 C130.35661399 438.69586866 108.15740937 413.60461729 84.12060547 395.02075195 C82.90272023 394.05124898 81.68530415 393.08115647 80.46826172 392.1105957 C64.34244775 379.38486195 46.94483902 368.2186089 29.12060547 358.02075195 C28.40904297 357.60889648 27.69748047 357.19704102 26.96435547 356.77270508 C2.59356582 342.75538435 -23.3131175 331.50503034 -48.80664062 319.71459961 C-61.90782873 313.64154338 -74.90466157 307.35853782 -87.87939453 301.02075195 C-88.94706055 300.50125977 -90.01472656 299.98176758 -91.11474609 299.4465332 C-123.23345778 283.78476091 -155.53198276 266.47373287 -181.41259766 241.4362793 C-182.42042306 240.46368081 -183.43516311 239.49821242 -184.45556641 238.53881836 C-193.37883944 230.1484779 -201.00743177 221.16507793 -207.87939453 211.02075195 C-208.30236816 210.39894043 -208.7253418 209.77712891 -209.16113281 209.13647461 C-216.53909237 197.99142264 -219.96240609 185.9464985 -223.26611328 173.08349609 C-223.69295246 171.04843729 -223.69295246 171.04843729 -224.87939453 170.02075195 C-228.94485785 151.56295499 -228.78295906 130.25649794 -223.87939453 112.02075195 C-223.70778809 111.37138672 -223.53618164 110.72202148 -223.359375 110.05297852 C-213.35365659 72.98085292 -188.36423143 41.22979944 -155.26806641 22.04052734 C-131.96674721 8.96997502 -107.12235201 2.3441885 -80.87939453 -1.97924805 C-79.68540039 -2.1805835 -79.68540039 -2.1805835 -78.46728516 -2.38598633 C-54.7975072 -6.17976724 -22.86970117 -7.77771506 0 0 Z " fill="#FBFBFB" transform="translate(773.87939453125,285.979248046875)"/>
<path d="M0 0 C86.46 0 172.92 0 262 0 C262 1.65 262 3.3 262 5 C261.00742187 5.09796875 260.01484375 5.1959375 258.9921875 5.296875 C237.87842791 7.55009104 216.43515727 14.07646472 201.546875 30.0703125 C190.33895747 44.0519066 184.75820709 59.66421501 184.92163086 77.47631836 C184.92774012 79.1450952 184.93366757 80.81387271 184.93943787 82.48265076 C184.94411009 83.35535551 184.94878231 84.22806026 184.95359612 85.12721062 C184.97294025 89.792506 184.95755165 94.45773914 184.94726562 99.12304688 C184.9350234 105.03958555 184.93341405 110.95539923 184.97583008 116.87182617 C185.00932987 121.67313375 185.00372572 126.47302009 184.97226143 131.27432442 C184.96735566 133.09506531 184.97652899 134.91590399 185.00047112 136.73649406 C185.19844147 152.72278778 185.19844147 152.72278778 180.09399414 158.47021484 C178.74470343 159.66440924 177.3815799 160.84331393 176 162 C172.59419573 166.35395548 169.86227137 171.27398252 167 176 C166.45762695 176.88510254 166.45762695 176.88510254 165.90429688 177.78808594 C160.97379193 185.88180958 157.1596518 194.04586812 154 203 C153.35224609 204.64742188 153.35224609 204.64742188 152.69140625 206.328125 C141.1243743 236.39554336 143.05294441 274.08927027 156.12353516 303.53076172 C161.71329666 315.22296184 168.09214613 327.02431739 177.20571494 336.31709558 C184.35236352 343.87551731 185.54839339 350.48157645 185.26464844 360.69067383 C185.26317854 362.2201362 185.26656805 363.74960963 185.27438354 365.27905273 C185.28175431 369.39896223 185.22156496 373.51533102 185.14826488 377.6344893 C185.0825637 381.98058232 185.07964309 386.32675009 185.06939697 390.67326355 C185.04044634 398.91462641 184.95472276 407.15438329 184.84875131 415.3950755 C184.7323375 424.6842823 184.68358141 433.97345901 184.63878584 443.26324046 C184.15128627 540.24867056 184.15128627 540.24867056 175.8046875 571.87109375 C175.03175344 574.87653151 174.34531685 577.89474907 173.66992188 580.92333984 C170.68624195 594.15360477 167.07196725 607.37128908 161.140625 619.609375 C160.01089632 621.9771625 159.0580167 624.36135443 158.125 626.8125 C140.67327959 670.85731817 106.43626049 710.32468264 63.0390625 729.921875 C55.6203835 733.10172561 47.90171683 735.31984629 40.12036133 737.421875 C38.18553878 737.94941211 36.26189897 738.51753489 34.33984375 739.08984375 C13.2130511 744.84720362 -18.68798682 746.09770243 -39 737 C-41.98254599 736.13965019 -44.96740107 735.2885506 -47.95703125 734.453125 C-72.21749878 727.07146141 -92.63218579 709.44750413 -107 689 C-107.59941406 688.20207031 -108.19882812 687.40414062 -108.81640625 686.58203125 C-118.58764019 672.6846614 -124.95062641 654.65554596 -128 638 C-128.17515137 637.06760498 -128.35030273 636.13520996 -128.53076172 635.17456055 C-129.9822765 626.7929244 -130.24102867 618.67990636 -130.125 610.1875 C-130.11146484 608.27227539 -130.11146484 608.27227539 -130.09765625 606.31835938 C-130.07438789 603.21203284 -130.04170155 600.10612428 -130 597 C-128.35 597 -126.7 597 -125 597 C-124.79246094 597.98355469 -124.58492188 598.96710937 -124.37109375 599.98046875 C-120.60563899 617.19547964 -115.33362338 633.44520413 -107 649 C-106.0819344 650.95767791 -105.16524758 652.91600304 -104.25 654.875 C-98.74321315 665.85920417 -91.42711478 675.98978389 -82.97265625 684.88671875 C-81 687 -81 687 -79.1484375 689.4375 C-76.58979201 692.48926625 -73.69772917 694.88950841 -70.5625 697.3125 C-69.94487793 697.79033936 -69.32725586 698.26817871 -68.69091797 698.76049805 C-60.25047158 705.19259632 -51.67389214 710.61748762 -41.75 714.4375 C-40.79407959 714.80838745 -40.79407959 714.80838745 -39.81884766 715.18676758 C-25.95595393 720.18775743 -5.60675808 720.49663245 8 715 C9.11375 714.58621094 10.2275 714.17242188 11.375 713.74609375 C19.5077302 710.52980928 26.24880331 706.53577701 33 701 C33.84175781 700.32195313 34.68351563 699.64390625 35.55078125 698.9453125 C63.1087994 675.54456925 74.18380352 637.30822883 80 603 C80.10594233 602.37557335 80.21188466 601.7511467 80.32103737 601.10779803 C82.40208399 588.71909312 84.00362619 576.33550806 85.15316772 563.82632446 C85.23951309 562.89006315 85.32585846 561.95380183 85.41482036 560.98916896 C87.39009556 539.0235671 87.58866717 517.12318963 87.55221677 495.08359838 C87.54717148 489.33479839 87.56544223 483.58605695 87.58029175 477.83728027 C87.60547356 466.65040789 87.60941428 455.46363216 87.60469122 444.27673618 C87.60109521 435.18182118 87.60468675 426.08693505 87.61314011 416.99202347 C87.61433048 415.68766081 87.61552086 414.38329815 87.61674731 413.03940935 C87.61917121 410.38828201 87.62159947 407.73715467 87.62403207 405.08602734 C87.63984594 387.36170387 87.64749023 369.63739041 87.63939857 351.91306114 C87.63892945 350.87968544 87.63892945 350.87968544 87.63845084 349.82543347 C87.63683981 346.33544879 87.63514824 342.84546415 87.63342424 339.35547952 C87.63308206 338.66261063 87.63273989 337.96974173 87.63238734 337.25587681 C87.63169402 335.85475052 87.63099696 334.45362424 87.63029617 333.05249796 C87.61955053 311.18679053 87.63556223 289.32124392 87.67236328 267.45556641 C87.71384873 242.77892854 87.73518141 218.10239392 87.72721231 193.4257189 C87.72339729 180.39746712 87.72827885 167.36936215 87.75664139 154.34113693 C87.78049601 143.27400087 87.78324571 132.20710251 87.75906105 121.13996308 C87.74731314 115.50298096 87.7450032 109.86643349 87.76906586 104.22948074 C87.79087719 99.0599356 87.78446847 93.89118569 87.75654249 88.72167702 C87.75127504 86.86265764 87.75589774 85.00357494 87.77201422 83.14461796 C87.93468495 62.96498056 82.4904429 44.14236224 68.25 29.26953125 C67.5075 28.52058594 66.765 27.77164063 66 27 C65.443125 26.38511719 64.88625 25.77023438 64.3125 25.13671875 C55.37628219 16.13844387 40.27047889 10.34358525 28 8 C27.08734375 7.81050781 26.1746875 7.62101563 25.234375 7.42578125 C16.87741802 5.85047252 8.47727125 5.40880242 0 5 C0 3.35 0 1.7 0 0 Z " fill="#FCFBFC" transform="translate(388,183)"/>
<path d="M0 0 C4.21134516 2.60539609 7.71603184 6.77190743 9.92578125 11.19140625 C10.55824734 19.09204823 11.04165834 26.71442424 5.92578125 33.19140625 C1.14580017 38.15859286 -2.96599761 39.37539139 -9.76171875 39.56640625 C-15.14593576 39.49979738 -19.11706486 39.24543159 -23.453125 35.92578125 C-28.1245047 30.92796778 -30.34354029 25.37571249 -30.63671875 18.56640625 C-30.29467923 12.34830323 -28.77193269 7.67742835 -24.1328125 3.40234375 C-16.70577048 -2.36968522 -8.84784358 -3.67034794 0 0 Z " fill="#070707" transform="translate(630.07421875,989.80859375)"/>
<path d="M0 0 C3.68722927 -0.11701204 7.37397542 -0.18752045 11.0625 -0.25 C12.10083984 -0.28351562 13.13917969 -0.31703125 14.20898438 -0.3515625 C20.72105857 -0.43425551 24.73320556 0.0553828 30 4 C31.60454372 7.20908744 31.48018091 10.51868838 31 14 C29.3125 16.9375 29.3125 16.9375 27 19 C24.35546875 19.62890625 24.35546875 19.62890625 22 20 C28.32745395 30.44771381 28.32745395 30.44771381 37.3125 37.875 C37.869375 37.91625 38.42625 37.9575 39 38 C39 38.66 39 39.32 39 40 C35.4269863 40.80560643 32.55189797 40.97949275 29 40 C25.36926233 36.41478882 22.74803431 32.28017249 20 28 C16.50905258 23.18938203 16.50905258 23.18938203 11 21 C11.33 26.28 11.66 31.56 12 37 C13.32 37.33 14.64 37.66 16 38 C16 38.66 16 39.32 16 40 C10.72 40 5.44 40 0 40 C0 39.34 0 38.68 0 38 C1.98 37.505 1.98 37.505 4 37 C4.09886835 32.21287067 4.17146623 27.42633525 4.21972656 22.63842773 C4.23984381 21.00974171 4.26714137 19.38112792 4.30175781 17.75268555 C4.35027429 15.41176542 4.37296632 13.07179982 4.390625 10.73046875 C4.41127014 10.00224411 4.43191528 9.27401947 4.45318604 8.52372742 C4.49906037 6.22053897 4.49906037 6.22053897 4 3 C2.13100656 0.97385476 2.13100656 0.97385476 0 0 Z " fill="#EAEAEA" transform="translate(864,989)"/>
<path d="M0 0 C3.96 0 7.92 0 12 0 C12.43570313 0.94359375 12.87140625 1.8871875 13.3203125 2.859375 C13.92149644 4.15642553 14.52308866 5.45328687 15.125 6.75 C15.43832275 7.42579102 15.75164551 8.10158203 16.07446289 8.79785156 C18.5641432 14.13745329 21.2020662 19.38880538 23.93359375 24.609375 C25 27 25 27 25 30 C25.66 30 26.32 30 27 30 C27.16290527 29.47212891 27.32581055 28.94425781 27.49365234 28.40039062 C29.46560244 22.23083132 31.93348464 16.38660457 34.625 10.5 C35.03234375 9.59507812 35.4396875 8.69015625 35.859375 7.7578125 C38.86044815 1.13955185 38.86044815 1.13955185 40 0 C41.85287502 -0.07226502 43.70833878 -0.0838122 45.5625 -0.0625 C46.57441406 -0.05347656 47.58632813 -0.04445313 48.62890625 -0.03515625 C49.41136719 -0.02355469 50.19382812 -0.01195312 51 0 C50.01 0.66 49.02 1.32 48 2 C47.73313787 4.69540315 47.65181927 7.15847464 47.70703125 9.8515625 C47.71339851 11.01261002 47.71339851 11.01261002 47.71989441 12.19711304 C47.73671002 14.67342677 47.77436605 17.14893158 47.8125 19.625 C47.82754318 21.30207159 47.84123222 22.97915592 47.85351562 24.65625 C47.88662279 28.77114581 47.93842363 32.88543569 48 37 C49.32 37.33 50.64 37.66 52 38 C52 38.66 52 39.32 52 40 C46.39 40 40.78 40 35 40 C35 39.34 35 38.68 35 38 C37.97 37.505 37.97 37.505 41 37 C41 27.1 41 17.2 41 7 C40.34 7 39.68 7 39 7 C38.9175 7.639375 38.835 8.27875 38.75 8.9375 C37.90682164 12.3804783 36.58170386 15.3324463 35.1015625 18.54296875 C33.99941153 21.00131257 33.02503144 23.48411497 32.0625 26 C30.1266469 30.92061465 27.68167712 35.44994129 25 40 C22.51403803 37.76747211 21.21808065 35.69811889 19.87890625 32.6484375 C19.50056641 31.79636719 19.12222656 30.94429687 18.73242188 30.06640625 C18.34634766 29.17824219 17.96027344 28.29007813 17.5625 27.375 C17.18029297 26.51003906 16.79808594 25.64507813 16.40429688 24.75390625 C15.67728809 23.10733627 14.95304416 21.45954027 14.23266602 19.81005859 C12.50298011 15.86696396 10.74874605 11.93467862 9 8 C9 17.57 9 27.14 9 37 C10.32 37.33 11.64 37.66 13 38 C13 38.66 13 39.32 13 40 C8.71 40 4.42 40 0 40 C0 39.34 0 38.68 0 38 C1.98 37.505 1.98 37.505 4 37 C4.09886835 32.21287067 4.17146623 27.42633525 4.21972656 22.63842773 C4.23984381 21.00974171 4.26714137 19.38112792 4.30175781 17.75268555 C4.35027429 15.41176542 4.37296632 13.07179982 4.390625 10.73046875 C4.41127014 10.00224411 4.43191528 9.27401947 4.45318604 8.52372742 C4.49906037 6.22053897 4.49906037 6.22053897 4 3 C2.68 2.01 1.36 1.02 0 0 Z " fill="#D9D9DA" transform="translate(666,989)"/>
<path d="M0 0 C3.68722927 -0.11701204 7.37397542 -0.18752045 11.0625 -0.25 C12.10083984 -0.28351562 13.13917969 -0.31703125 14.20898438 -0.3515625 C20.73019647 -0.43437154 24.73923642 0.03122856 30 4 C32.48386059 7.72579089 32.3804212 9.58711402 32 14 C30.0831264 18.57919805 27.46403531 20.88545696 23 23 C18.93545933 23.32703201 15.09024551 23.18178869 11 23 C11.33 27.62 11.66 32.24 12 37 C13.32 37.33 14.64 37.66 16 38 C16 38.66 16 39.32 16 40 C10.72 40 5.44 40 0 40 C0 39.34 0 38.68 0 38 C1.98 37.505 1.98 37.505 4 37 C4.09886835 32.21287067 4.17146623 27.42633525 4.21972656 22.63842773 C4.23984381 21.00974171 4.26714137 19.38112792 4.30175781 17.75268555 C4.35027429 15.41176542 4.37296632 13.07179982 4.390625 10.73046875 C4.41127014 10.00224411 4.43191528 9.27401947 4.45318604 8.52372742 C4.49906037 6.22053897 4.49906037 6.22053897 4 3 C2.13100656 0.97385476 2.13100656 0.97385476 0 0 Z " fill="#E4E4E4" transform="translate(743,989)"/>
<path d="M0 0 C3 1 3 1 3.96801758 2.59399414 C4.25314209 3.29645264 4.5382666 3.99891113 4.83203125 4.72265625 C5.17057129 5.53621582 5.50911133 6.34977539 5.85791016 7.18798828 C6.2347998 8.11595215 6.61168945 9.04391602 7 10 C7.91873597 12.16614461 8.83942468 14.3314617 9.76171875 16.49609375 C10.737809 18.80954588 11.71305498 21.1233544 12.6875 23.4375 C13.66998115 25.76978062 14.65302447 28.10182454 15.63671875 30.43359375 C16.28193481 31.96584595 16.28193481 31.96584595 16.94018555 33.52905273 C17.58698901 35.03706882 18.26617887 36.53235775 19 38 C19.99 38.33 20.98 38.66 22 39 C22 39.66 22 40.32 22 41 C17.05 41 12.1 41 7 41 C7 40.34 7 39.68 7 39 C8.485 38.505 8.485 38.505 10 38 C9.36738317 34.30973516 8.42909641 31.57274103 7 28 C1.72 27.67 -3.56 27.34 -9 27 C-10.89604092 32.5721221 -10.89604092 32.5721221 -11 38 C-9.68 38.33 -8.36 38.66 -7 39 C-7 39.66 -7 40.32 -7 41 C-11.62 41 -16.24 41 -21 41 C-21 40.34 -21 39.68 -21 39 C-20.401875 38.938125 -19.80375 38.87625 -19.1875 38.8125 C-16.04193929 37.64414888 -15.55801381 35.9503654 -14 33 C-12.99234042 30.4863574 -12.03752006 27.98445705 -11.125 25.4375 C-4.32855515 6.92319339 -4.32855515 6.92319339 0 0 Z " fill="#E5E5E5" transform="translate(946,988)"/>
<path d="M0 0 C1.83398438 0.16040039 1.83398438 0.16040039 4 1 C5.40039062 3.34155273 5.40039062 3.34155273 6.65625 6.43359375 C7.12160156 7.55830078 7.58695312 8.68300781 8.06640625 9.84179688 C8.53949219 11.02837891 9.01257813 12.21496094 9.5 13.4375 C9.97308594 14.58927734 10.44617188 15.74105469 10.93359375 16.92773438 C14.53729249 25.72734777 14.53729249 25.72734777 16.09375 30.00830078 C16.58875 31.35190674 16.58875 31.35190674 17.09375 32.72265625 C17.36896484 33.50519775 17.64417969 34.28773926 17.92773438 35.09399414 C19.25368934 37.45094551 20.51993885 38.03392218 23 39 C23 39.66 23 40.32 23 41 C18.05 41 13.1 41 8 41 C8 40.34 8 39.68 8 39 C9.485 38.505 9.485 38.505 11 38 C10.36738317 34.30973516 9.42909641 31.57274103 8 28 C2.72 27.67 -2.56 27.34 -8 27 C-10.18314742 33.42766432 -10.18314742 33.42766432 -10 38 C-8.68 38.33 -7.36 38.66 -6 39 C-6 39.66 -6 40.32 -6 41 C-10.62 41 -15.24 41 -20 41 C-20 40.34 -20 39.68 -20 39 C-19.38882324 38.92990723 -18.77764648 38.85981445 -18.14794922 38.78759766 C-15.83658422 38.18525959 -15.83658422 38.18525959 -14.72314453 36.01318359 C-14.36333496 35.15031738 -14.00352539 34.28745117 -13.6328125 33.3984375 C-13.02058838 31.9599646 -13.02058838 31.9599646 -12.39599609 30.49243164 C-11.76685303 28.94930298 -11.76685303 28.94930298 -11.125 27.375 C-10.68881348 26.33786865 -10.25262695 25.3007373 -9.80322266 24.23217773 C-8.51774937 21.16174794 -7.25467231 18.08312769 -6 15 C-5.65517578 14.15614746 -5.31035156 13.31229492 -4.95507812 12.44287109 C-3.27058586 8.30781029 -1.61740733 4.1618652 0 0 Z " fill="#E9E9E9" transform="translate(401,988)"/>
<path d="M0 0 C4.21134516 2.60539609 7.71603184 6.77190743 9.92578125 11.19140625 C10.55824734 19.09204823 11.04165834 26.71442424 5.92578125 33.19140625 C1.14580017 38.15859286 -2.96599761 39.37539139 -9.76171875 39.56640625 C-15.14593576 39.49979738 -19.11706486 39.24543159 -23.453125 35.92578125 C-28.1245047 30.92796778 -30.34354029 25.37571249 -30.63671875 18.56640625 C-30.29467923 12.34830323 -28.77193269 7.67742835 -24.1328125 3.40234375 C-16.70577048 -2.36968522 -8.84784358 -3.67034794 0 0 Z M-20.07421875 4.19140625 C-23.9520222 10.47612219 -25.16573408 17.18934388 -23.578125 24.46484375 C-22.07772426 29.56790163 -20.28492397 32.73646863 -16.07421875 36.19140625 C-12.57793454 37.93954835 -8.88920057 37.75016621 -5.07421875 37.19140625 C-1.00427952 34.70422117 1.7875409 31.96416576 3.453125 27.40625 C4.99322536 20.18941608 5.13739952 12.2491807 1.25390625 5.78125 C-1.99470951 1.89246584 -5.60511165 0.39759672 -10.63671875 -0.30859375 C-14.83048915 0.30140922 -16.87285503 1.42659213 -20.07421875 4.19140625 Z " fill="#F0EFF0" transform="translate(630.07421875,989.80859375)"/>
<path d="M0 0 C4.95 0 9.9 0 15 0 C14.01 0.66 13.02 1.32 12 2 C11.53212985 4.92374079 11.53212985 4.92374079 11.6015625 8.36328125 C11.59769531 9.64267578 11.59382812 10.92207031 11.58984375 12.24023438 C11.59612793 12.90885498 11.60241211 13.57747559 11.60888672 14.26635742 C11.62486063 16.29480172 11.60908881 18.3212294 11.58984375 20.34960938 C11.59371094 21.63287109 11.59757813 22.91613281 11.6015625 24.23828125 C11.60494629 25.41430908 11.60833008 26.59033691 11.61181641 27.80200195 C12.03662954 31.30176754 12.90218342 33.1944824 15 36 C18.21312858 37.60656429 21.51486253 37.47847898 25 37 C29.72423256 34.5644933 29.72423256 34.5644933 32 30 C32.28710465 25.50453519 32.27764243 21.00359754 32.3125 16.5 C32.34150391 15.25089844 32.37050781 14.00179687 32.40039062 12.71484375 C32.41295898 10.92240234 32.41295898 10.92240234 32.42578125 9.09375 C32.44036377 7.99740234 32.45494629 6.90105469 32.4699707 5.77148438 C32.23548413 2.45950058 32.23548413 2.45950058 28 0 C32.29 0 36.58 0 41 0 C39.68 0.99 38.36 1.98 37 3 C36.40397821 5.91220707 36.40397821 5.91220707 36.49609375 9.2421875 C36.47740234 10.47324219 36.45871094 11.70429687 36.43945312 12.97265625 C36.43880859 14.26042969 36.43816406 15.54820312 36.4375 16.875 C36.42855035 19.41414321 36.40690904 21.95328112 36.37109375 24.4921875 C36.3700061 26.18384033 36.3700061 26.18384033 36.36889648 27.90966797 C35.81186697 32.5760343 33.96516036 35.10908275 30.5625 38.25 C25.86660129 41.45695522 20.55856686 41.71412144 15 41 C10.35574134 38.50586109 6.68624978 36.05874933 5 31 C4.89584782 28.89759592 4.84492787 26.79238045 4.82421875 24.6875 C4.80037109 23.44742188 4.77652344 22.20734375 4.75195312 20.9296875 C4.7089871 18.31006179 4.67773522 15.69021773 4.65820312 13.0703125 C4.63048828 11.83023438 4.60277344 10.59015625 4.57421875 9.3125 C4.55963623 8.17425781 4.54505371 7.03601563 4.5300293 5.86328125 C4.23657324 2.47178023 4.23657324 2.47178023 0 0 Z " fill="#E2E2E2" transform="translate(799,989)"/>
<path d="M0 0 C0 3.63 0 7.26 0 11 C-0.66 11 -1.32 11 -2 11 C-2.2475 10.2575 -2.495 9.515 -2.75 8.75 C-4.1639416 5.63932847 -5.2343655 4.01816571 -8 2 C-11.71467641 1.53566545 -14.05662357 1.54040635 -17.4375 3.1875 C-19.22470572 4.92228604 -19.22470572 4.92228604 -19.3125 7.5 C-19.06741492 10.12461546 -19.06741492 10.12461546 -18 13 C-15.74557769 14.08411126 -15.74557769 14.08411126 -13 15 C-10.94676421 15.933289 -8.90534316 16.89290418 -6.875 17.875 C-5.84117187 18.36742187 -4.80734375 18.85984375 -3.7421875 19.3671875 C-0.9544216 21.02713927 0.40811708 22.20085017 2 25 C2.65942043 30.11050836 2.64482667 31.97586352 -0.125 36.375 C-4.1165443 40.01945349 -7.05009368 40.85556249 -12.375 41.25 C-16.49457217 40.96589157 -20.02954833 40.11451275 -24 39 C-24 35.37 -24 31.74 -24 28 C-23.34 28 -22.68 28 -22 28 C-21.566875 29.11375 -21.13375 30.2275 -20.6875 31.375 C-19.30088881 35.17512334 -19.30088881 35.17512334 -16 37 C-10.57183277 37.43516628 -10.57183277 37.43516628 -5.5 35.875 C-3.79166739 34.00054752 -3.79166739 34.00054752 -3.25 31.125 C-4.1059854 27.55839416 -4.48413878 27.30619363 -7.4375 25.4375 C-8.94452632 24.59966831 -10.4664848 23.78830286 -12 23 C-22.52246184 17.52420012 -22.52246184 17.52420012 -25 13 C-25.59337198 8.84639617 -25.48074603 6.80124338 -23.3125 3.1875 C-16.69673446 -3.07065659 -8.32261987 -1.02432245 0 0 Z " fill="#EAEAEA" transform="translate(571,989)"/>
<path d="M0 0 C0.66 0 1.32 0 2 0 C2.350625 0.928125 2.70125 1.85625 3.0625 2.8125 C5.59919019 6.9857645 7.4710174 7.46185496 12 9 C12 9.66 12 10.32 12 11 C6.25 14 6.25 14 4 14 C3.34 15.98 2.68 17.96 2 20 C1.34 20 0.68 20 0 20 C-0.45375 19.236875 -0.9075 18.47375 -1.375 17.6875 C-3.07232881 14.88037928 -4.23655997 13.70158735 -7 12 C-9.33882581 11.54648296 -9.33882581 11.54648296 -11.88482666 11.60127258 C-13.35713745 11.58246536 -13.35713745 11.58246536 -14.85919189 11.5632782 C-15.92949646 11.56471329 -16.99980103 11.56614838 -18.10253906 11.56762695 C-19.23453735 11.5574353 -20.36653564 11.54724365 -21.53283691 11.53674316 C-25.27714943 11.50653176 -29.02120645 11.49733451 -32.765625 11.48828125 C-35.36066544 11.47144066 -37.9556977 11.45329127 -40.55072021 11.43388367 C-46.68462106 11.39117379 -52.81845537 11.36167194 -58.95245719 11.33856028 C-65.93677638 11.3115084 -72.92095776 11.26759695 -79.90517855 11.22227156 C-94.27004158 11.12942575 -108.63495514 11.05774476 -123 11 C-123 10.34 -123 9.68 -123 9 C-122.10878134 8.99503478 -122.10878134 8.99503478 -121.19955826 8.98996925 C-106.74418415 8.90875688 -92.2889096 8.81667022 -77.83368301 8.71247292 C-70.84324584 8.66234627 -63.8528204 8.61590339 -56.86230469 8.578125 C-50.11899385 8.54167223 -43.37582598 8.49496399 -36.63262177 8.44193649 C-34.05698629 8.42337086 -31.48132348 8.40827098 -28.90564728 8.39665604 C-25.30447779 8.37983094 -21.70360156 8.35080435 -18.10253906 8.31884766 C-16.49708221 8.31560738 -16.49708221 8.31560738 -14.85919189 8.31230164 C-13.3868811 8.29555641 -13.3868811 8.29555641 -11.88482666 8.2784729 C-11.03308994 8.27294214 -10.18135323 8.26741138 -9.3038063 8.26171303 C-6.73633598 7.9700477 -5.16061152 7.41069735 -3 6 C-1.23272142 2.9665533 -1.23272142 2.9665533 0 0 Z " fill="#F7F7F6" transform="translate(268,1001)"/>
<path d="M0 0 C0.66 0 1.32 0 2 0 C2.433125 0.94875 2.86625 1.8975 3.3125 2.875 C4.79302201 6.20041937 4.79302201 6.20041937 8 8 C10.25904905 8.31073675 10.25904905 8.31073675 12.80253601 8.2784729 C14.28540604 8.29521812 14.28540604 8.29521812 15.79823303 8.31230164 C17.4231089 8.31554192 17.4231089 8.31554192 19.08081055 8.31884766 C20.22241638 8.32889328 21.36402222 8.3389389 22.54022217 8.34928894 C26.32238246 8.38023708 30.1044716 8.39718854 33.88671875 8.4140625 C36.50560625 8.43276477 39.12448768 8.45233747 41.74336243 8.4727478 C47.93748058 8.51955074 54.13161603 8.55628746 60.32582074 8.58942068 C67.37780815 8.62763141 74.42970308 8.67704428 81.48161256 8.72740483 C95.98767054 8.83074716 110.49379476 8.92000007 125 9 C125 9.66 125 10.32 125 11 C124.11016403 11.00358253 124.11016403 11.00358253 123.20235157 11.00723743 C108.76328672 11.06639127 94.32437644 11.14194376 79.88549519 11.23571491 C72.90292686 11.28066731 65.92040948 11.32008318 58.93774414 11.34643555 C52.20086576 11.37187591 45.46424448 11.41278422 38.72749901 11.46318626 C36.15548709 11.47988941 33.58343594 11.49138215 31.01137733 11.49761391 C27.41269727 11.5072172 23.81460139 11.53523265 20.21606445 11.56762695 C19.14935516 11.56619186 18.08264587 11.56475677 16.98361206 11.5632782 C9.97243098 11.5848436 9.97243098 11.5848436 4 15 C2.19203897 17.56610666 2.19203897 17.56610666 1 20 C0.4225 19.236875 -0.155 18.47375 -0.75 17.6875 C-3.5972954 14.28656383 -5.79152368 12.40282544 -10 11 C-10 10.34 -10 9.68 -10 9 C-8.3603125 8.443125 -8.3603125 8.443125 -6.6875 7.875 C-3.45411511 6.5201201 -3.01423545 6.02341962 -1.0625 2.8125 C-0.711875 1.884375 -0.36125 0.95625 0 0 Z " fill="#F2F2F2" transform="translate(1022,1001)"/>
<path d="M0 0 C4.95 0 9.9 0 15 0 C14.01 0.33 13.02 0.66 12 1 C14.10346737 7.42726142 17.072256 12.50878509 21 18 C26.03526537 13.71069987 29.66008864 7.47869228 31 1 C30.01 0.67 29.02 0.34 28 0 C31.96 0 35.92 0 40 0 C39.319375 0.61875 38.63875 1.2375 37.9375 1.875 C34.70973787 5.10276213 32.1850554 8.76019577 29.6484375 12.54296875 C28 15 28 15 26.6640625 16.67578125 C22.43797677 22.47540954 23.68361998 30.17146456 24 37 C25.32 37.33 26.64 37.66 28 38 C28 38.66 28 39.32 28 40 C22.72 40 17.44 40 12 40 C12 39.34 12 38.68 12 38 C13.98 37.505 13.98 37.505 16 37 C17.87278785 24.27197886 14.54428221 16.92536326 7.015625 6.66796875 C4.79632325 3.73574414 3.08729308 2.31546981 0 0 Z " fill="#E3E2E3" transform="translate(442,989)"/>
<path d="M0 0 C1.51400391 0.01740234 1.51400391 0.01740234 3.05859375 0.03515625 C4.07050781 0.04417969 5.08242188 0.05320312 6.125 0.0625 C7.29869141 0.07990234 7.29869141 0.07990234 8.49609375 0.09765625 C7.50609375 0.75765625 6.51609375 1.41765625 5.49609375 2.09765625 C5.22923162 4.7930594 5.14791302 7.25613089 5.203125 9.94921875 C5.20949226 11.11026627 5.20949226 11.11026627 5.21598816 12.29476929 C5.23280377 14.77108302 5.2704598 17.24658783 5.30859375 19.72265625 C5.32363693 21.39972784 5.33732597 23.07681217 5.34960938 24.75390625 C5.38271654 28.86880206 5.43451738 32.98309194 5.49609375 37.09765625 C6.81609375 37.42765625 8.13609375 37.75765625 9.49609375 38.09765625 C9.49609375 38.75765625 9.49609375 39.41765625 9.49609375 40.09765625 C3.88609375 40.09765625 -1.72390625 40.09765625 -7.50390625 40.09765625 C-7.50390625 39.43765625 -7.50390625 38.77765625 -7.50390625 38.09765625 C-4.53390625 37.60265625 -4.53390625 37.60265625 -1.50390625 37.09765625 C-1.50390625 27.19765625 -1.50390625 17.29765625 -1.50390625 7.09765625 C-2.16390625 7.09765625 -2.82390625 7.09765625 -3.50390625 7.09765625 C-3.58640625 7.73703125 -3.66890625 8.37640625 -3.75390625 9.03515625 C-4.59452259 12.46767296 -5.91197839 15.41012143 -7.390625 18.609375 C-8.9342996 22.05962313 -10.2521208 25.58874314 -11.57421875 29.12890625 C-12.50390625 31.09765625 -12.50390625 31.09765625 -14.50390625 32.09765625 C-15.49390625 31.43765625 -16.48390625 30.77765625 -17.50390625 30.09765625 C-16.84390625 30.09765625 -16.18390625 30.09765625 -15.50390625 30.09765625 C-15.34100098 29.56978516 -15.1780957 29.04191406 -15.01025391 28.49804688 C-13.03830381 22.32848757 -10.57042161 16.48426082 -7.87890625 10.59765625 C-7.4715625 9.69273437 -7.06421875 8.7878125 -6.64453125 7.85546875 C-3.13793747 0.12238446 -3.13793747 0.12238446 0 0 Z " fill="#CFCFCF" transform="translate(708.50390625,988.90234375)"/>
<path d="M0 0 C5.28 0 10.56 0 16 0 C14.68 0.99 13.36 1.98 12 3 C11.43548583 6.09374729 11.43548583 6.09374729 11.56640625 9.64453125 C11.55673828 10.96130859 11.54707031 12.27808594 11.53710938 13.63476562 C11.54568496 15.72157326 11.56245273 17.80807002 11.5847168 19.89477539 C11.6801116 33.09209931 11.6801116 33.09209931 8.58203125 36.86328125 C3.92372268 40.71819016 1.17512136 41.54167731 -5 41 C-8.5386994 39.34860695 -9.81070153 38.28394771 -12 35 C-12.25 31.9375 -12.25 31.9375 -12 29 C-11.34 28.34 -10.68 27.68 -10 27 C-7.375 27.375 -7.375 27.375 -5 28 C-5 30.97 -5 33.94 -5 37 C-1.58343976 37.16677282 -1.58343976 37.16677282 2 37 C4.83007002 34.16992998 4.35245926 31.38047148 4.4140625 27.5859375 C4.43342865 26.85629791 4.4527948 26.12665833 4.4727478 25.37490845 C4.53258422 23.04172498 4.57894423 20.70849227 4.625 18.375 C4.66317614 16.79424918 4.70222765 15.21351924 4.7421875 13.6328125 C4.83828878 9.7553777 4.92230412 5.87784551 5 2 C3.35 1.67 1.7 1.34 0 1 C0 0.67 0 0.34 0 0 Z " fill="#F8F8F8" transform="translate(342,989)"/>
<path d="M0 0 C9.04 0 9.04 0 13 3 C14.64965169 4.64965169 14.24949498 6.5476355 14.3125 8.8125 C14.27132368 13.61640446 14.27132368 13.61640446 12.1875 16.5625 C7.80705157 19.44108039 5.65464829 19 0 19 C0 12.73 0 6.46 0 0 Z " fill="#0E0D0D" transform="translate(754,991)"/>
<path d="M0 0 C0.721875 0.825 1.44375 1.65 2.1875 2.5 C2.5175 2.83 2.8475 3.16 3.1875 3.5 C3.5711836 8.48788683 3.37656168 11.56682392 0.1875 15.5 C-3.80823545 19.29082594 -6.86283591 19.74372831 -12.1875 19.75 C-14.06326302 19.6861054 -15.93882538 19.60914609 -17.8125 19.5 C-17.8125 19.17 -17.8125 18.84 -17.8125 18.5 C-15.5025 18.5 -13.1925 18.5 -10.8125 18.5 C-10.8125 17.84 -10.8125 17.18 -10.8125 16.5 C-8.8325 15.84 -6.8525 15.18 -4.8125 14.5 C-4.67745862 12.56440687 -4.58048871 10.626128 -4.5 8.6875 C-4.44199219 7.60855469 -4.38398437 6.52960937 -4.32421875 5.41796875 C-4.52144649 2.38316937 -4.52144649 2.38316937 -6.83203125 0.67578125 C-10.53258415 -0.92686943 -10.53258415 -0.92686943 -17.8125 -1.5 C-17.8125 4.77 -17.8125 11.04 -17.8125 17.5 C-19.1325 16.51 -20.4525 15.52 -21.8125 14.5 C-22.13772264 11.82362656 -22.23811796 9.59451524 -22.125 6.9375 C-22.11533203 6.25236328 -22.10566406 5.56722656 -22.09570312 4.86132812 C-21.98235965 -0.1602807 -21.98235965 -0.1602807 -20.8125 -2.5 C-13.64937341 -3.78111906 -5.70894609 -5.07461874 0 0 Z " fill="#DCDCDC" transform="translate(771.8125,992.5)"/>
<path d="M0 0 C9.19230769 0 9.19230769 0 13 3 C14.56935594 6.13871188 14.35201103 8.53855822 14 12 C12.0625 14.9375 12.0625 14.9375 9 17 C5.87335485 17.40782328 3.17557846 17.23698347 0 17 C0 11.39 0 5.78 0 0 Z " fill="#090909" transform="translate(875,991)"/>
<path d="M0 0 C4.95 0 9.9 0 15 0 C13.68 0.99 12.36 1.98 11 3 C10.35527702 5.99195597 10.35527702 5.99195597 10.390625 9.41796875 C10.35839844 10.67158203 10.32617188 11.92519531 10.29296875 13.21679688 C10.27169922 15.18229492 10.27169922 15.18229492 10.25 17.1875 C10.22184019 18.52282536 10.19191271 19.8581147 10.16015625 21.19335938 C10.08934884 24.46230149 10.03670367 27.73052579 10 31 C9.34 31 8.68 31 8 31 C7.67 32.32 7.34 33.64 7 35 C4.84594921 31.49498591 4.74798562 28.66110411 4.7265625 24.58984375 C4.7059375 23.35298828 4.6853125 22.11613281 4.6640625 20.84179688 C4.63798242 18.23509277 4.61977625 15.6282982 4.609375 13.02148438 C4.58617187 11.78591797 4.56296875 10.55035156 4.5390625 9.27734375 C4.52673584 7.57952759 4.52673584 7.57952759 4.51416016 5.84741211 C4.23771373 2.4692751 4.23771373 2.4692751 0 0 Z " fill="#F7F7F7" transform="translate(799,989)"/>
<path d="M0 0 C0.66 0 1.32 0 2 0 C1.649375 0.61875 1.29875 1.2375 0.9375 1.875 C0.628125 2.57625 0.31875 3.2775 0 4 C0.33 4.66 0.66 5.32 1 6 C0.01 6 -0.98 6 -2 6 C4.32745395 16.44771381 4.32745395 16.44771381 13.3125 23.875 C13.869375 23.91625 14.42625 23.9575 15 24 C15 24.66 15 25.32 15 26 C11.42748843 26.80549321 8.55233558 26.97466589 5 26 C1.33515995 22.43281242 -1.28535444 18.3143474 -4 14 C-7.59639697 8.50899671 -7.59639697 8.50899671 -13 5 C-12.09507812 4.96132813 -12.09507812 4.96132813 -11.171875 4.921875 C-5.93018499 4.62611413 -5.93018499 4.62611413 -1.5625 1.9375 C-1.046875 1.298125 -0.53125 0.65875 0 0 Z " fill="#E8E8E8" transform="translate(888,1003)"/>
<path d="M0 0 C4.38855677 1.72407587 6.91486937 4.82973873 9 9 C9.50947062 16.55388175 9.82038783 23.3143213 6 30 C3.525 29.01 3.525 29.01 1 28 C1.15984375 27.30777344 1.3196875 26.61554687 1.484375 25.90234375 C2.85429353 18.19136295 3.04178348 10.85345894 -1 4 C-0.6875 1.625 -0.6875 1.625 0 0 Z " fill="#F0F0F0" transform="translate(631,992)"/>
<path d="M0 0 C3.4446109 1.66489527 4.40075868 4.98597793 5.859375 8.33203125 C6.33310547 9.34813477 6.33310547 9.34813477 6.81640625 10.38476562 C8.39376238 13.87748277 9.109375 16.13126923 9.109375 20.01953125 C10.099375 20.01953125 11.089375 20.01953125 12.109375 20.01953125 C11.57229736 23.88649028 10.52382871 25.99013624 8.109375 29.01953125 C4.9009971 22.70517049 1.75719517 16.36253114 -1.265625 9.95703125 C-1.76835938 8.89355469 -2.27109375 7.83007812 -2.7890625 6.734375 C-3.890625 4.01953125 -3.890625 4.01953125 -3.890625 1.01953125 C-1.890625 0.01953125 -1.890625 0.01953125 0 0 Z " fill="#EEEDEE" transform="translate(681.890625,999.98046875)"/>
<path d="M0 0 C0.66 0 1.32 0 2 0 C2.350625 0.928125 2.70125 1.85625 3.0625 2.8125 C5.59919019 6.9857645 7.4710174 7.46185496 12 9 C12 9.66 12 10.32 12 11 C6.25 14 6.25 14 4 14 C3.34 15.98 2.68 17.96 2 20 C1.34 20 0.68 20 0 20 C-1.01351664 18.34151823 -2.01120795 16.67334039 -3 15 C-3.721875 14.29875 -4.44375 13.5975 -5.1875 12.875 C-7 11 -7 11 -7 8 C-6.401875 7.79375 -5.80375 7.5875 -5.1875 7.375 C-2.18981233 5.49073918 -1.38638224 3.18867916 0 0 Z " fill="#EBEBEB" transform="translate(268,1001)"/>
<path d="M0 0 C2.97 0.495 2.97 0.495 6 1 C5.67 13.54 5.34 26.08 5 39 C3.35 39 1.7 39 0 39 C0.33 38.34 0.66 37.68 1 37 C1.21141314 32.57418131 1.18579708 28.14465755 1.18530273 23.71435547 C1.18749147 21.5085935 1.2056586 19.30332984 1.22460938 17.09765625 C1.22754293 15.70052255 1.22952798 14.30338647 1.23046875 12.90625 C1.23457764 11.63072266 1.23868652 10.35519531 1.24291992 9.04101562 C1.32199197 5.88962108 1.32199197 5.88962108 -1 4 C-0.625 1.875 -0.625 1.875 0 0 Z " fill="#F0F0F0" transform="translate(706,989)"/>
<path d="M0 0 C2.72178647 2.37083979 3.88769607 4.6533784 5.1875 8 C5.53167969 8.86625 5.87585938 9.7325 6.23046875 10.625 C7 13 7 13 7 16 C2.71 16 -1.58 16 -6 16 C-3.125 5.375 -3.125 5.375 -2 2 C-1.34 2 -0.68 2 0 2 C0 1.34 0 0.68 0 0 Z " fill="#171717" transform="translate(945,997)"/>
<path d="M0 0 C0.66 0 1.32 0 2 0 C3.0044134 2.2898234 4.00367612 4.5816599 5 6.875 C5.28617187 7.52597656 5.57234375 8.17695312 5.8671875 8.84765625 C8 13.7734375 8 13.7734375 8 16 C3.71 16 -0.58 16 -5 16 C-4.26282303 11.5769382 -3.60731663 8.61101389 -1.9375 4.625 C-1.57527344 3.75101563 -1.21304687 2.87703125 -0.83984375 1.9765625 C-0.56269531 1.32429687 -0.28554688 0.67203125 0 0 Z " fill="#0E0E0E" transform="translate(400,997)"/>
<path d="M0 0 C4.95 0 9.9 0 15 0 C14.01 0.33 13.02 0.66 12 1 C12.474375 2.216875 12.94875 3.43375 13.4375 4.6875 C14.58931634 7.77174754 15.61316423 10.71189591 16 14 C15.67 14.66 15.34 15.32 15 16 C10.96015521 14.50277682 9.63216398 12.2114079 7.5 8.5625 C5.15761165 4.56446898 3.82857414 2.8714306 0 0 Z " fill="#E6E6E6" transform="translate(442,989)"/>
<path d="M0 0 C1.65 0 3.3 0 5 0 C5.56618455 17.27911373 5.56618455 17.27911373 2 24 C1.34 24.33 0.68 24.66 0 25 C0 16.75 0 8.5 0 0 Z " fill="#EDECED" transform="translate(602,608)"/>
<path d="M0 0 C0.66 0 1.32 0 2 0 C2.433125 1.11375 2.86625 2.2275 3.3125 3.375 C4.69911119 7.17512334 4.69911119 7.17512334 8 9 C14.51423147 9.65142315 17.54564522 8.49078706 23 5 C23.66 5 24.32 5 25 5 C23.60440273 8.3726934 22.1078412 10.08045102 19 12 C12.69872 14.39014069 6.22371618 12.74700805 0 11 C0 7.37 0 3.74 0 0 Z " fill="#E2E2E2" transform="translate(547,1017)"/>
<path d="M0 0 C1.890625 0.21484375 1.890625 0.21484375 4 1 C5.046875 3.06640625 5.046875 3.06640625 5.75 5.5625 C5.99234375 6.38878906 6.2346875 7.21507812 6.484375 8.06640625 C6.65453125 8.70449219 6.8246875 9.34257813 7 10 C5.02 10.33 3.04 10.66 1 11 C1 10.34 1 9.68 1 9 C0.34 9 -0.32 9 -1 9 C-1.0825 9.78375 -1.165 10.5675 -1.25 11.375 C-2.24365069 16.177645 -4.08713518 20.49809489 -6 25 C-8 22 -8 22 -7.71484375 19.94140625 C-5.49217554 13.13937136 -2.85266989 6.56226828 0 0 Z " fill="#E4E4E4" transform="translate(401,988)"/>
<path d="M0 0 C0.5775 0.78375 1.155 1.5675 1.75 2.375 C4.34920302 5.40740352 6.22915787 6.72756275 10.18359375 7.3359375 C14.28583452 7.40703353 16.43361845 7.35398847 20 5.125 C22.03791396 3.16362866 22.03791396 3.16362866 23 1 C24.32 1 25.64 1 27 1 C27.33 1.99 27.66 2.98 28 4 C21.43611109 9.68870372 17.25262544 10.3280361 8.4765625 10.30078125 C3.91628185 9.90624011 1.59635739 8.74008182 -2 6 C-1.34 4.02 -0.68 2.04 0 0 Z " fill="#E4E3E3" transform="translate(608,1019)"/>
<path d="M0 0 C5.28 0 10.56 0 16 0 C14.68 0.99 13.36 1.98 12 3 C11.38658703 6.15700952 11.38658703 6.15700952 11.4609375 9.78515625 C11.44914459 10.44204941 11.43735168 11.09894257 11.42520142 11.77574158 C11.38992666 13.87156929 11.38076975 15.96639961 11.375 18.0625 C11.35866808 20.16187186 11.3366645 22.26079697 11.30337524 24.35997009 C11.27472689 26.26204843 11.26461209 28.16437877 11.25537109 30.06665039 C11 33 11 33 9 35 C8.505 33.515 8.505 33.515 8 32 C8.66 32 9.32 32 10 32 C9.8613598 27.7289011 9.71286099 23.45820108 9.5625 19.1875 C9.52318359 17.97255859 9.48386719 16.75761719 9.44335938 15.50585938 C9.38051758 13.76079102 9.38051758 13.76079102 9.31640625 11.98046875 C9.27974854 10.90692139 9.24309082 9.83337402 9.20532227 8.72729492 C9.10458153 5.90688447 9.10458153 5.90688447 8 3 C7.34 3 6.68 3 6 3 C6 12.57 6 22.14 6 32 C5.67 32 5.34 32 5 32 C5 22.1 5 12.2 5 2 C3.35 1.67 1.7 1.34 0 1 C0 0.67 0 0.34 0 0 Z " fill="#D2D2D2" transform="translate(342,989)"/>
<path d="M0 0 C2.625 0.375 2.625 0.375 5 1 C5 3.97 5 6.94 5 10 C6.093125 10 7.18625 10 8.3125 10 C10.54166667 10 12.77083333 10 15 10 C14 13 14 13 12 14 C7.00308353 14.37712577 4.00932275 14.09290612 0 11 C-2.30163882 7.54754176 -2.34490322 6.05261287 -2 2 C-1.34 1.34 -0.68 0.68 0 0 Z " fill="#DFDEDE" transform="translate(332,1016)"/>
<path d="M0 0 C1.89453125 0.07421875 1.89453125 0.07421875 4 1 C5.44921875 3.58203125 5.44921875 3.58203125 6.6875 6.8125 C7.10386719 7.87082031 7.52023437 8.92914062 7.94921875 10.01953125 C8.76973985 12.34688292 9.46994798 14.59437931 10 17 C9.01 17.33 8.02 17.66 7 18 C6.34 18.66 5.68 19.32 5 20 C3.98855432 17.77542155 2.99079735 15.54625709 2 13.3125 C1.71382812 12.68666016 1.42765625 12.06082031 1.1328125 11.41601562 C-0.44883199 7.81965731 -1.46799357 4.94138338 -1 1 C-0.67 0.67 -0.34 0.34 0 0 Z " fill="#E9E8E9" transform="translate(946,990)"/>
<path d="M0 0 C0 3.63 0 7.26 0 11 C-0.66 11 -1.32 11 -2 11 C-2.2475 10.2575 -2.495 9.515 -2.75 8.75 C-4.1639416 5.63932847 -5.2343655 4.01816571 -8 2 C-12.26089509 1.54347553 -15.35042135 1.66426966 -19 4 C-19.33 3.67 -19.66 3.34 -20 3 C-20.33 3.99 -20.66 4.98 -21 6 C-21.66 6 -22.32 6 -23 6 C-23 8.64 -23 11.28 -23 14 C-23.66 13.67 -24.32 13.34 -25 13 C-25.31346682 9.00329808 -25.40395059 6.67325099 -23.3125 3.1875 C-16.69673446 -3.07065659 -8.32261987 -1.02432245 0 0 Z " fill="#DADADA" transform="translate(571,989)"/>
<path d="M0 0 C2.79177569 2.79177569 2.31213484 4.63183572 2.4140625 8.5390625 C2.45273437 9.84101562 2.49140625 11.14296875 2.53125 12.484375 C2.56270763 13.86457862 2.59395491 15.24478704 2.625 16.625 C2.66317934 18.01304541 2.70223105 19.40106711 2.7421875 20.7890625 C2.83672943 24.19257185 2.92227897 27.59607165 3 31 C4.32 31.33 5.64 31.66 7 32 C7 32.66 7 33.32 7 34 C2.71 34 -1.58 34 -6 34 C-6 33.34 -6 32.68 -6 32 C-4.35 31.34 -2.7 30.68 -1 30 C-0.67 20.1 -0.34 10.2 0 0 Z " fill="#F1F1F0" transform="translate(672,995)"/>
<path d="M0 0 C0.33 0 0.66 0 1 0 C1.01458252 0.82201904 1.02916504 1.64403809 1.04418945 2.4909668 C1.11876333 6.22361323 1.21539512 9.95537459 1.3125 13.6875 C1.33505859 14.98107422 1.35761719 16.27464844 1.38085938 17.60742188 C1.41630859 18.85458984 1.45175781 20.10175781 1.48828125 21.38671875 C1.51446533 22.53358154 1.54064941 23.68044434 1.56762695 24.86206055 C2.03859512 28.2801034 3.11281071 30.15681892 5 33 C5 33.66 5 34.32 5 35 C7.97 35.66 10.94 36.32 14 37 C14 37.33 14 37.66 14 38 C7.59287031 38.51257038 4.01329753 38.13597047 -1 34 C-2 33 -2 33 -2.0625 30.4375 C-2.041875 29.633125 -2.02125 28.82875 -2 28 C-1.34 28 -0.68 28 0 28 C0 18.76 0 9.52 0 0 Z " fill="#C4C5C4" transform="translate(809,992)"/>
<path d="M0 0 C6.27 0 12.54 0 19 0 C18.67 0.99 18.34 1.98 18 3 C18.66 3.66 19.32 4.32 20 5 C13.4 4.67 6.8 4.34 0 4 C0 2.68 0 1.36 0 0 Z " fill="#F0F0F0" transform="translate(388,184)"/>
<path d="M0 0 C0.99 0.33 1.98 0.66 3 1 C2.67 1.66 2.34 2.32 2 3 C1.34 3 0.68 3 0 3 C0.020625 3.94875 0.04125 4.8975 0.0625 5.875 C0 9 0 9 -1 11 C-1.66 11 -2.32 11 -3 11 C-3.10957031 11.58007812 -3.21914063 12.16015625 -3.33203125 12.7578125 C-4.3143365 17.59746277 -5.54821911 21.65366116 -8 26 C-8.99 26 -9.98 26 -11 26 C-8.15114645 17.00362035 -5.03767038 8.02512607 0 0 Z " fill="#B7B7B8" transform="translate(946,988)"/>
<path d="M0 0 C-0.33 0.66 -0.66 1.32 -1 2 C-4.63 1.67 -8.26 1.34 -12 1 C-12 7.27 -12 13.54 -12 20 C-13.32 19.01 -14.64 18.02 -16 17 C-16.32522264 14.32362656 -16.42561796 12.09451524 -16.3125 9.4375 C-16.30283203 8.75236328 -16.29316406 8.06722656 -16.28320312 7.36132812 C-16.16985965 2.3397193 -16.16985965 2.3397193 -15 0 C-12.3828125 -0.44921875 -12.3828125 -0.44921875 -9.125 -0.6875 C-8.05507813 -0.77386719 -6.98515625 -0.86023438 -5.8828125 -0.94921875 C-3 -1 -3 -1 0 0 Z " fill="#D9D9D9" transform="translate(766,990)"/>
<path d="M0 0 C0.33 4.62 0.66 9.24 1 14 C2.32 14.33 3.64 14.66 5 15 C5 15.66 5 16.32 5 17 C-0.28 17 -5.56 17 -11 17 C-11 16.34 -11 15.68 -11 15 C-8.36 15 -5.72 15 -3 15 C-3.33 14.67 -3.66 14.34 -4 14 C-4.15126231 12.02486333 -4.22173766 10.04321865 -4.25 8.0625 C-4.27578125 6.98097656 -4.3015625 5.89945313 -4.328125 4.78515625 C-4.21984375 3.86605469 -4.1115625 2.94695313 -4 2 C-1 0 -1 0 0 0 Z " fill="#E2E2E1" transform="translate(754,1012)"/>
<path d="M0 0 C0.66 0 1.32 0 2 0 C1.67 3.63 1.34 7.26 1 11 C2.32 11.33 3.64 11.66 5 12 C5 12.66 5 13.32 5 14 C0.38 14 -4.24 14 -9 14 C-9 13.34 -9 12.68 -9 12 C-8.39671875 11.94972656 -7.7934375 11.89945313 -7.171875 11.84765625 C-4.74621499 11.15786548 -4.74621499 11.15786548 -3.515625 8.49609375 C-2.88914062 6.98208984 -2.88914062 6.98208984 -2.25 5.4375 C-1.82203125 4.42558594 -1.3940625 3.41367187 -0.953125 2.37109375 C-0.63859375 1.58863281 -0.3240625 0.80617188 0 0 Z " fill="#E2E2E2" transform="translate(390,1015)"/>
<path d="M0 0 C0.33 0 0.66 0 1 0 C1 9.9 1 19.8 1 30 C0.67 30 0.34 30 0 30 C0 20.1 0 10.2 0 0 Z M2 31 C2 30.67 2 30.34 2 30 C4.97 30.33 7.94 30.66 11 31 C11 31.66 11 32.32 11 33 C5.39 33 -0.22 33 -6 33 C-6 32.34 -6 31.68 -6 31 C-2.94736336 30.01879536 -1.05263664 30.01879536 2 31 Z " fill="#DFDEDE" transform="translate(707,996)"/>
<path d="M0 0 C1.875 0.1875 1.875 0.1875 4 1 C4.28875 1.804375 4.5775 2.60875 4.875 3.4375 C5.79704705 6.33663628 5.79704705 6.33663628 9.125 7.3125 C10.07375 7.539375 11.0225 7.76625 12 8 C12 8.66 12 9.32 12 10 C7.05 10 2.1 10 -3 10 C-3 9.34 -3 8.68 -3 8 C-2.01 7.67 -1.02 7.34 0 7 C0 4.69 0 2.38 0 0 Z " fill="#EBEBEB" transform="translate(956,1019)"/>
<path d="M0 0 C0.98651887 2.95955661 1 4.92864836 1 8 C1.66868314 11.11332248 1.66868314 11.11332248 4.0625 12.1875 C4.701875 12.455625 5.34125 12.72375 6 13 C5.01 13.99 4.02 14.98 3 16 C3 15.34 3 14.68 3 14 C1.7934375 14.2784375 1.7934375 14.2784375 0.5625 14.5625 C-0.283125 14.706875 -1.12875 14.85125 -2 15 C-3 14 -3 14 -3.09765625 11.71484375 C-3.08605469 10.79832031 -3.07445312 9.88179687 -3.0625 8.9375 C-3.05347656 8.01839844 -3.04445313 7.09929688 -3.03515625 6.15234375 C-3.02355469 5.44207031 -3.01195312 4.73179687 -3 4 C-2.34 4 -1.68 4 -1 4 C-0.67 2.68 -0.34 1.36 0 0 Z " fill="#F1F1F1" transform="translate(551,991)"/>
<path d="M0 0 C0.33 0 0.66 0 1 0 C1 6.27 1 12.54 1 19 C3.64 19 6.28 19 9 19 C9 19.33 9 19.66 9 20 C6.69 20.33 4.38 20.66 2 21 C1.67 25.29 1.34 29.58 1 34 C0.67 34 0.34 34 0 34 C-0.33 30.37 -0.66 26.74 -1 23 C-1.33 23 -1.66 23 -2 23 C-2 20.69 -2 18.38 -2 16 C-1.67 16 -1.34 16 -1 16 C-0.67 10.72 -0.34 5.44 0 0 Z " fill="#FBFBFB" transform="translate(752,991)"/>
<path d="M0 0 C0.99 0 1.98 0 3 0 C3 8.25 3 16.5 3 25 C2.01 25.33 1.02 25.66 0 26 C0 17.42 0 8.84 0 0 Z " fill="#090909" transform="translate(994,738)"/>
<path d="M0 0 C-0.99 0.99 -1.98 1.98 -3 3 C-3.845625 2.505 -4.69125 2.01 -5.5625 1.5 C-9.98280009 -0.42885822 -13.6470362 -0.63593616 -18.3125 0.625 C-18.869375 0.74875 -19.42625 0.8725 -20 1 C-20.66 0.34 -21.32 -0.32 -22 -1 C-14.47859345 -4.88201628 -7.38484918 -3.22247964 0 0 Z " fill="#CECECE" transform="translate(632,991)"/>
<path d="M0 0 C-1.23932829 3.43198603 -2.50301511 6.30325632 -5 9 C-5.99 9 -6.98 9 -8 9 C-8.33 9.66 -8.66 10.32 -9 11 C-9.66 11 -10.32 11 -11 11 C-9.65108796 5.19967822 -6.55130049 0 0 0 Z " fill="#E7E6E7" transform="translate(612,991)"/>
<path d="M0 0 C0.66 0.66 1.32 1.32 2 2 C0.71142987 3.31554021 -0.58095891 4.62734097 -1.875 5.9375 C-2.59429688 6.66839844 -3.31359375 7.39929688 -4.0546875 8.15234375 C-6 10 -6 10 -8 11 C-7.01 12.485 -7.01 12.485 -6 14 C-10 14 -10 14 -12 13 C-10.44997253 9.11602311 -7.99523379 6.97020381 -4.875 4.25 C-3.96492187 3.45078125 -3.05484375 2.6515625 -2.1171875 1.828125 C-1.06917969 0.92320312 -1.06917969 0.92320312 0 0 Z " fill="#EEEEEF" transform="translate(532,879)"/>
<path d="M0 0 C-1.39559727 3.3726934 -2.8921588 5.08045102 -6 7 C-9.58021596 8.35801295 -13.21366624 8.07281411 -17 8 C-14.59128718 4.38693077 -13.11562242 4.41291914 -9.03515625 3.5390625 C-5.72356013 2.66190268 -3.39663442 0 0 0 Z " fill="#CECECF" transform="translate(572,1022)"/>
<path d="M0 0 C4.29 0 8.58 0 13 0 C11.68 0.99 10.36 1.98 9 3 C8.08656104 5.94515652 8.08656104 5.94515652 7.75 9.1875 C7.60046875 10.27417969 7.4509375 11.36085938 7.296875 12.48046875 C7.19890625 13.31191406 7.1009375 14.14335938 7 15 C6.67 15 6.34 15 6 15 C5.98582031 14.25234375 5.97164062 13.5046875 5.95703125 12.734375 C5.90933594 11.74953125 5.86164062 10.7646875 5.8125 9.75 C5.77769531 8.77546875 5.74289062 7.8009375 5.70703125 6.796875 C5.11389909 3.26571913 5.11389909 3.26571913 0 0 Z " fill="#FDFDFD" transform="translate(827,989)"/>
<path d="M0 0 C2.0625 0.4375 2.0625 0.4375 4 1 C4.66 3.31 5.32 5.62 6 8 C5.01 8 4.02 8 3 8 C3 8.66 3 9.32 3 10 C2.34 10 1.68 10 1 10 C-0.85064319 6.87703962 -1.29356154 4.62059232 -1 1 C-0.67 0.67 -0.34 0.34 0 0 Z " fill="#EDEDED" transform="translate(946,990)"/>
<path d="M0 0 C3.37462715 0.54723683 5.08235 1.0549 8 3 C7.67 3.99 7.34 4.98 7 6 C6.34 6 5.68 6 5 6 C5 8.64 5 11.28 5 14 C4.67 14 4.34 14 4 14 C3.87882813 13.37351562 3.75765625 12.74703125 3.6328125 12.1015625 C3.46523438 11.28429687 3.29765625 10.46703125 3.125 9.625 C2.96257813 8.81289063 2.80015625 8.00078125 2.6328125 7.1640625 C2.13341068 4.81326077 2.13341068 4.81326077 0 3 C0 2.01 0 1.02 0 0 Z " fill="#F2F2F2" transform="translate(765,990)"/>
<path d="M0 0 C0.75 1.6875 0.75 1.6875 1 4 C-0.9375 6.75 -0.9375 6.75 -3 9 C-6 3.375 -6 3.375 -6 0 C-3.50907189 -1.24546405 -2.58919267 -0.7767578 0 0 Z " fill="#E7E6E6" transform="translate(684,1001)"/>
<path d="M0 0 C1.6792238 0.63437344 3.35008418 1.29289322 5 2 C5 2.66 5 3.32 5 4 C1.7 4 -1.6 4 -5 4 C-5.66 2.68 -6.32 1.36 -7 0 C-4.26965677 -1.36517162 -2.92769462 -0.74894513 0 0 Z " fill="#DBDBDB" transform="translate(898,1025)"/>
<path d="M0 0 C1.68178661 2.52267991 2.90106742 4.81091823 4.125 7.5625 C4.47820313 8.34753906 4.83140625 9.13257813 5.1953125 9.94140625 C6 12 6 12 6 14 C5.01 13.67 4.02 13.34 3 13 C2.67 11.35 2.34 9.7 2 8 C0.68 7.67 -0.64 7.34 -2 7 C-1.34 4.69 -0.68 2.38 0 0 Z " fill="#D7D7D7" transform="translate(958,1012)"/>
<path d="M0 0 C0.33 0.99 0.66 1.98 1 3 C-2.26760563 8.63380282 -2.26760563 8.63380282 -5 10 C-5.72693904 11.97888961 -6.39816251 13.97954558 -7 16 C-7.99 15.67 -8.98 15.34 -10 15 C-3.84965831 4.44191344 -3.84965831 4.44191344 0 0 Z " fill="#E5E4E5" transform="translate(575,347)"/>
<path d="M0 0 C3.96 0 7.92 0 12 0 C9.42215154 2.64752004 7.08351902 4.94432065 4 7 C3.896875 6.21625 3.79375 5.4325 3.6875 4.625 C3.22404978 1.66954819 3.22404978 1.66954819 0 0 Z " fill="#EEEEEF" transform="translate(470,989)"/>
<path d="M0 0 C0.99 0.33 1.98 0.66 3 1 C2.54738642 2.43931117 2.08767021 3.87638999 1.625 5.3125 C1.36976563 6.11300781 1.11453125 6.91351562 0.8515625 7.73828125 C0 10 0 10 -2 13 C-3.71050559 8.02398374 -2.00885647 4.57383705 0 0 Z " fill="#D4D4D5" transform="translate(396,1000)"/>
<path d="M0 0 C1.5 1.1875 1.5 1.1875 3 3 C3.1875 5.6875 3.1875 5.6875 3 8 C1.68 8.33 0.36 8.66 -1 9 C-1.625 6.1875 -1.625 6.1875 -2 3 C-1.34 2.01 -0.68 1.02 0 0 Z " fill="#F2F2F2" transform="translate(684,1005)"/>
<path d="M0 0 C1.66666667 0 3.33333333 0 5 0 C4.45276317 3.37462715 3.9451 5.08235 2 8 C1.71125 7.195625 1.4225 6.39125 1.125 5.5625 C0.26737432 2.8673532 0.26737432 2.8673532 -2 2 C-1.34 2 -0.68 2 0 2 C0 1.34 0 0.68 0 0 Z " fill="#F7F7F7" transform="translate(409,1011)"/>
<path d="M0 0 C0.66 0.66 1.32 1.32 2 2 C1.63318342 4.93453261 1.13562754 5.86437246 -1 8 C-1.99 7.67 -2.98 7.34 -4 7 C-3.39816251 4.97954558 -2.72693904 2.97888961 -2 1 C-1.34 0.67 -0.68 0.34 0 0 Z " fill="#EFEFEF" transform="translate(349,1020)"/>
<path d="M0 0 C6.4 -0.36923077 6.4 -0.36923077 9.4375 1.5 C9.953125 1.995 10.46875 2.49 11 3 C10.01 3.66 9.02 4.32 8 5 C5.36 3.68 2.72 2.36 0 1 C0 0.67 0 0.34 0 0 Z " fill="#DFDFDF" transform="translate(621,989)"/>
<path d="M0 0 C0.33 0 0.66 0 1 0 C1.22295635 2.39527434 1.42874063 4.79001341 1.625 7.1875 C1.68945312 7.86103516 1.75390625 8.53457031 1.8203125 9.22851562 C2.14362111 13.37090718 1.89095265 16.28305109 0 20 C-0.33 20 -0.66 20 -1 20 C-0.67 13.4 -0.34 6.8 0 0 Z " fill="#B6B5B6" transform="translate(474,736)"/>
<path d="M0 0 C0.25 2.75 0.25 2.75 0 6 C-2 8.375 -2 8.375 -4 10 C-3.88637738 8.5199159 -3.75877092 7.04089926 -3.625 5.5625 C-3.55539062 4.73878906 -3.48578125 3.91507813 -3.4140625 3.06640625 C-3.27742187 2.38449219 -3.14078125 1.70257812 -3 1 C-1 0 -1 0 0 0 Z " fill="#151515" transform="translate(571,728)"/>
<path d="M0 0 C0.66 0.33 1.32 0.66 2 1 C1.74438677 3.3431213 1.40729228 5.67843403 1 8 C0.01 8.495 0.01 8.495 -1 9 C-1.99 8.34 -2.98 7.68 -4 7 C-3.34 7 -2.68 7 -2 7 C-1.34 4.69 -0.68 2.38 0 0 Z " fill="#C2C2C3" transform="translate(695,1012)"/>
<path d="M0 0 C5.28 0 10.56 0 16 0 C16 0.33 16 0.66 16 1 C11.38 1 6.76 1 2 1 C1.34 2.32 0.68 3.64 0 5 C-0.33 4.01 -0.66 3.02 -1 2 C-0.67 1.34 -0.34 0.68 0 0 Z " fill="#262626" transform="translate(393,1015)"/>
<path d="M0 0 C0.66 0.33 1.32 0.66 2 1 C1.01 2.485 1.01 2.485 0 4 C0.99 5.485 0.99 5.485 2 7 C-2 7 -2 7 -4 6 C-2.84826645 3.53199953 -1.95216435 1.95216435 0 0 Z " fill="#D9D8D9" transform="translate(524,886)"/>
<path d="M0 0 C0.66 0.33 1.32 0.66 2 1 C0.7580393 4.43927579 -0.55740284 7.25207819 -3 10 C-3.66 10 -4.32 10 -5 10 C-3.66511872 6.40608886 -2.03977277 3.24509304 0 0 Z " fill="#E4E4E5" transform="translate(561,839)"/>
<path d="M0 0 C1.45792884 -0.05399736 2.91642712 -0.09279177 4.375 -0.125 C5.18710937 -0.14820313 5.99921875 -0.17140625 6.8359375 -0.1953125 C9 0 9 0 11 2 C5.06 2.495 5.06 2.495 -1 3 C-0.67 2.01 -0.34 1.02 0 0 Z " fill="#F4F5F4" transform="translate(639,186)"/>
<path d="M0 0 C0.99 0 1.98 0 3 0 C3.33 0.99 3.66 1.98 4 3 C2.5625 5.1875 2.5625 5.1875 1 7 C-1 4 -1 4 -0.625 1.8125 C-0.41875 1.214375 -0.2125 0.61625 0 0 Z " fill="#E5E5E5" transform="translate(689,1022)"/>
<path d="M0 0 C0.66 0 1.32 0 2 0 C1.49287967 3.71888239 0.88391785 6.73454239 -1 10 C-1.66 9.67 -2.32 9.34 -3 9 C-2.01 6.03 -1.02 3.06 0 0 Z " fill="#DADADA" transform="translate(934,1015)"/>
<path d="M0 0 C4.29 0 8.58 0 13 0 C9 3 9 3 6.5 3.375 C4 3 4 3 0 0 Z " fill="#EDECEC" transform="translate(827,989)"/>
<path d="M0 0 C0.99 0 1.98 0 3 0 C3 1.65 3 3.3 3 5 C1.02 5.99 1.02 5.99 -1 7 C-0.67 4.69 -0.34 2.38 0 0 Z " fill="#E2E1E2" transform="translate(551,396)"/>
<path d="M0 0 C-1.25 1.5 -1.25 1.5 -3 3 C-4.32 3 -5.64 3 -7 3 C-9.22743787 4.41977909 -9.22743787 4.41977909 -11 6 C-11 5.34 -11 4.68 -11 4 C-11.66 3.67 -12.32 3.34 -13 3 C-11.21189234 2.30329584 -9.41937948 1.61788811 -7.625 0.9375 C-6.62726562 0.55464844 -5.62953125 0.17179687 -4.6015625 -0.22265625 C-2 -1 -2 -1 0 0 Z " fill="#B5B5B5" transform="translate(652,295)"/>
<path d="M0 0 C-1 3 -1 3 -3 4 C-5.3329866 4.04022391 -7.66706666 4.04320247 -10 4 C-7.6604297 0.49064455 -4.21379901 -2.1068995 0 0 Z " fill="#B9BABA" transform="translate(347,1026)"/>
<path d="M0 0 C2.64 0 5.28 0 8 0 C8 1.98 8 3.96 8 6 C7.13375 5.071875 7.13375 5.071875 6.25 4.125 C4.19750179 2.18652947 2.56633418 1.09985751 0 0 Z " fill="#D1D1D1" transform="translate(875,1008)"/>
<path d="M0 0 C1.31223496 3.93670488 0.24296256 6.12488144 -1 10 C-1.66 10 -2.32 10 -3 10 C-3.36923077 4.58461538 -3.36923077 4.58461538 -1.5 1.625 C-1.005 1.08875 -0.51 0.5525 0 0 Z " fill="#D8D8D8" transform="translate(943,996)"/>
<path d="M0 0 C0.66 0 1.32 0 2 0 C2.75 1.75 2.75 1.75 3 4 C1.0625 6.25 1.0625 6.25 -1 8 C-2 6 -2 6 -1.0625 2.875 C-0.5365625 1.451875 -0.5365625 1.451875 0 0 Z " fill="#1A1A1B" transform="translate(400,997)"/>
<path d="M0 0 C1.32 0 2.64 0 4 0 C4.33 1.32 4.66 2.64 5 4 C4.01 3.67 3.02 3.34 2 3 C1.67 3.66 1.34 4.32 1 5 C0.01 5.495 0.01 5.495 -1 6 C-0.67 4.02 -0.34 2.04 0 0 Z " fill="#DADADA" transform="translate(949,998)"/>
<path d="M0 0 C3.3 0 6.6 0 10 0 C7 2 7 2 5 2 C5 2.66 5 3.32 5 4 C4.01 4 3.02 4 2 4 C2 3.01 2 2.02 2 1 C1.34 0.67 0.68 0.34 0 0 Z " fill="#F5F5F5" transform="translate(447,989)"/>
<path d="M0 0 C-1.41519715 2.0343459 -2.54982123 2.90410393 -4.98046875 3.421875 C-6.98176954 3.66273952 -8.9909944 3.83532741 -11 4 C-3.77464789 -1.88732394 -3.77464789 -1.88732394 0 0 Z " fill="#353536" transform="translate(677,300)"/>
<path d="M0 0 C0.66 0.33 1.32 0.66 2 1 C1.67 2.98 1.34 4.96 1 7 C0.01 6.67 -0.98 6.34 -2 6 C-2 4.68 -2 3.36 -2 2 C-1.34 2 -0.68 2 0 2 C0 1.34 0 0.68 0 0 Z " fill="#F3F3F3" transform="translate(456,998)"/>
<path d="M0 0 C1.61949011 2.57213134 2.04408751 3.67669159 1.625 6.75 C1.41875 7.4925 1.2125 8.235 1 9 C0.34 9 -0.32 9 -1 9 C-1.33 9.99 -1.66 10.98 -2 12 C-1.33333333 8 -0.66666667 4 0 0 Z " fill="#272828" transform="translate(566,740)"/>
<path d="M0 0 C1 3 1 3 -0.1875 5.5625 C-2 8 -2 8 -6 10 C-4.02 6.7 -2.04 3.4 0 0 Z " fill="#1D1D1D" transform="translate(563,345)"/>
<path d="M0 0 C3.63 0 7.26 0 11 0 C10.67 0.99 10.34 1.98 10 3 C6.7 2.34 3.4 1.68 0 1 C0 0.67 0 0.34 0 0 Z " fill="#373A39" transform="translate(615,1029)"/>
<path d="M0 0 C2.5 2.3125 2.5 2.3125 5 5 C5 5.99 5 6.98 5 8 C2.5 5.6875 2.5 5.6875 0 3 C0 2.01 0 1.02 0 0 Z " fill="#111212" transform="translate(566,519)"/>
<path d="M0 0 C1.32 0 2.64 0 4 0 C4.33 0.99 4.66 1.98 5 3 C4.01 3 3.02 3 2 3 C0.31763529 3.62599617 -1.3523962 4.28752268 -3 5 C-1.75 2.5 -1.75 2.5 0 0 Z " fill="#DADADB" transform="translate(631,1020)"/>
<path d="M0 0 C0.93065133 2.60582371 1.14917407 3.64198224 0.0625 6.25 C-0.4634375 7.11625 -0.4634375 7.11625 -1 8 C-1.66 7.67 -2.32 7.34 -3 7 C-1.125 1.125 -1.125 1.125 0 0 Z " fill="#232323" transform="translate(705,998)"/>
<path d="M0 0 C-0.33 0.66 -0.66 1.32 -1 2 C-4.63 1.67 -8.26 1.34 -12 1 C-12 0.67 -12 0.34 -12 0 C-10.56359829 -0.19573608 -9.12580496 -0.38127816 -7.6875 -0.5625 C-6.88699219 -0.66691406 -6.08648438 -0.77132812 -5.26171875 -0.87890625 C-3 -1 -3 -1 0 0 Z " fill="#C5C5C5" transform="translate(887,990)"/>
</svg>
